<svg xmlns="http://www.w3.org/2000/svg" width="20" height="20" viewBox="0 0 20 20">
    <g fill="none" fill-rule="evenodd">
        <path fill="#FFF" d="M-167-199h1920v4804H-167z"/>
        <path fill="#47C36F" d="M15.578 17.214L8.52 10.06l7.16-7.257c.308-.312.473-.719.473-1.163A1.631 1.631 0 0 0 15.16.124 1.582 1.582 0 0 0 13.96.113a1.587 1.587 0 0 0-.555.366L5.088 8.908a1.62 1.62 0 0 0-.473 1.153c0 .44.166.843.473 1.154l8.195 8.306c.308.312.71.479 1.147.479.438 0 .84-.167 1.148-.479a1.62 1.62 0 0 0 .472-1.154 1.62 1.62 0 0 0-.472-1.153z"/>
    </g>
</svg>
