<svg xmlns="http://www.w3.org/2000/svg" width="20" height="20" viewBox="0 0 20 20">
    <g fill="none" fill-rule="evenodd">
        <path fill="#FFF" d="M-1630-2727H290V652h-1920z"/>
        <path fill="#EBEFF6" d="M-1467-1509H119V116h-1586z"/>
        <path fill="#ECECEC" stroke="#31548C" d="M-742.5-17.5h788v53h-788z"/>
        <g fill="#0B2D79">
            <path d="M7.466 0h5.068a1.3 1.3 0 0 1 1.286 1.172l.007.133v1.697h5.404V4.57h-1.643l-1.282 14.716a.78.78 0 0 1-.674.709l-.099.006H4.441a.777.777 0 0 1-.758-.616l-.015-.099L2.386 4.57H.769V3.003l5.404-.001V1.305c0-.674.51-1.231 1.161-1.298L7.466 0h5.068zm8.565 4.57H3.943l1.208 13.863h9.672L16.03 4.57zM7.766 6.922l.35 9.251-1.613.057-.35-9.25 1.613-.058zm4.51-5.356H7.724v1.435h4.55V1.567z"/>
        </g>
    </g>
</svg>
