<svg xmlns="http://www.w3.org/2000/svg" xmlns:xlink="http://www.w3.org/1999/xlink" width="17" height="17" viewBox="0 0 17 17">
    <defs>
        <rect id="b" width="360" height="80" rx="4"/>
        <filter id="a" width="108.6%" height="138.8%" x="-4.3%" y="-18.1%" filterUnits="objectBoundingBox">
            <feOffset dy="1" in="SourceAlpha" result="shadowOffsetOuter1"/>
            <feGaussianBlur in="shadowOffsetOuter1" result="shadowBlurOuter1" stdDeviation="5"/>
            <feColorMatrix in="shadowBlurOuter1" values="0 0 0 0 0.678431373 0 0 0 0 0.678431373 0 0 0 0 0.678431373 0 0 0 0.8 0"/>
        </filter>
    </defs>
    <g fill="none" fill-rule="evenodd">
        <path fill="#FFF" d="M-1547-101H373V979h-1920z"/>
        <path fill="#EBEFF6" d="M-1384-192H202v1625h-1586z"/>
        <path fill="#47C36F" d="M-1547-101H373V5h-1920z"/>
        <g transform="translate(-27 -31)">
            <use fill="#000" filter="url(#a)" xlink:href="#b"/>
            <use fill="#DF4242" xlink:href="#b"/>
        </g>
        <g transform="translate(-7 -7)">
            <circle cx="16" cy="16" r="16" fill="#FFF"/>
            <path fill="#DF4242" d="M10.806 9.22l4.694 4.695 4.694-4.694c.4-.4 1.047-.4 1.447 0l.138.138c.4.4.4 1.048 0 1.447L17.085 15.5l4.694 4.694c.4.4.4 1.047 0 1.447l-.138.138c-.4.4-1.048.4-1.447 0L15.5 17.085l-4.694 4.694c-.4.4-1.047.4-1.447 0l-.138-.138c-.4-.4-.4-1.048 0-1.447l4.694-4.694-4.694-4.694c-.4-.4-.4-1.047 0-1.447l.138-.138c.4-.4 1.048-.4 1.447 0z"/>
        </g>
    </g>
</svg>
