<svg xmlns="http://www.w3.org/2000/svg" width="16" height="16" viewBox="0 0 16 16">
    <g fill="none" fill-rule="evenodd">
        <path fill="#FFF" d="M-725-448h1920v3379H-725z"/>
        <path fill="#EBEFF6" d="M-562-149h1586v576H-562z"/>
        <path fill="#0B2D79" d="M16 7.893c.023 2.214-.733 4.107-2.268 5.678-1.536 1.571-3.41 2.38-5.625 2.428-2.214.024-4.107-.732-5.678-2.267C.858 12.196.049 10.322.001 8.107-.023 5.893.733 4 2.268 2.43 3.804.858 5.678.049 7.893.001 10.107-.023 12 .733 13.57 2.268c1.571 1.536 2.38 3.41 2.428 5.625zm-7.115-4.47c-.231-.23-.526-.346-.885-.346s-.654.115-.885.346c-.23.23-.346.526-.346.885s.116.654.346.884c.231.231.526.346.885.346s.654-.115.885-.346c.23-.23.346-.525.346-.884 0-.36-.116-.654-.346-.885zm.961 9.5v-.407h-.77V6.154H6.77v.444h.77v5.918h-.77v.407h3.077z"/>
    </g>
</svg>
