<svg xmlns="http://www.w3.org/2000/svg" width="16" height="16" viewBox="0 0 16 16">
    <g fill="none" fill-rule="evenodd">
        <path fill="#FFF" d="M-256-2615h1920V764H-256z"/>
        <path fill="#EBEFF6" d="M-93-1397h1586V228H-93z"/>
        <g transform="translate(-12 -12)">
            <rect width="178" height="42" fill="#47C36F" rx="4"/>
            <path fill="#FFF" d="M25.062 21.385a.62.62 0 0 1 .469.204.64.64 0 0 1 .192.462v2.68c0 .266-.097.501-.286.695a.955.955 0 0 1-.705.297h-9.28a.965.965 0 0 1-.702-.288.965.965 0 0 1-.288-.703v-2.68a.66.66 0 0 1 .188-.465.637.637 0 0 1 .472-.202c.184 0 .346.07.473.202a.66.66 0 0 1 .188.464v2.35c.001.002-.001 0 .006 0h8.612c.002 0 0 .002 0-.006v-2.344a.66.66 0 0 1 .189-.464.637.637 0 0 1 .472-.202zm-4.958-6.923a.64.64 0 0 1 .463.192l1.875 1.875a.646.646 0 0 1 .192.468.646.646 0 0 1-.192.469.64.64 0 0 1-.463.192.688.688 0 0 1-.475-.193l-.733-.74v6.348c0 .18-.07.34-.202.467a.66.66 0 0 1-.465.188.66.66 0 0 1-.464-.188.63.63 0 0 1-.203-.467V16.72l-.745.746a.64.64 0 0 1-.463.192.64.64 0 0 1-.462-.192.646.646 0 0 1-.192-.469c0-.18.065-.342.192-.468l1.875-1.875a.64.64 0 0 1 .462-.192z"/>
        </g>
    </g>
</svg>
